PathFileType	4	(X/Y/Z)	/Users/itak/Documents/Research/Walk-IL/dataset/trc/00381_00012.trc
DataRate	CameraRate	NumFrames	NumMarkers	Units	OrigDataRate	OrigDataStartFrame	OrigNumFrames
100.000000	100.000000	4	54	mm	100.000000	243	487
Frame#	Time	RPSI			LPSI			L3			STRN			T10			C7			CLAV			RBAK			LBAK			LSHO			LUPA			LAEL			LAOL			LWTS			LWPS			LFRA			LHPS			LHTS			RSHO			RUPA			RAEL			RAOL			RWTS			RWPS			RFRA			RIFD			RHPS			RBHD			LFHD			RFHD			LBHD			LHIP			RASI			LASI			LKNE			LTHI			LANK			LTIP			LTOE			LMT1			LMT5			LHEE			RKNE			RTHI			RANK			RTIP			RTOE			RMT1			RMT5			RHEE			RHTS			RHIP			LIFD			*53			
		X1	Y1	Z1	X2	Y2	Z2	X3	Y3	Z3	X4	Y4	Z4	X5	Y5	Z5	X6	Y6	Z6	X7	Y7	Z7	X8	Y8	Z8	X9	Y9	Z9	X10	Y10	Z10	X11	Y11	Z11	X12	Y12	Z12	X13	Y13	Z13	X14	Y14	Z14	X15	Y15	Z15	X16	Y16	Z16	X17	Y17	Z17	X18	Y18	Z18	X19	Y19	Z19	X20	Y20	Z20	X21	Y21	Z21	X22	Y22	Z22	X23	Y23	Z23	X24	Y24	Z24	X25	Y25	Z25	X26	Y26	Z26	X27	Y27	Z27	X28	Y28	Z28	X29	Y29	Z29	X30	Y30	Z30	X31	Y31	Z31	X32	Y32	Z32	X33	Y33	Z33	X34	Y34	Z34	X35	Y35	Z35	X36	Y36	Z36	X37	Y37	Z37	X38	Y38	Z38	X39	Y39	Z39	X40	Y40	Z40	X41	Y41	Z41	X42	Y42	Z42	X43	Y43	Z43	X44	Y44	Z44	X45	Y45	Z45	X46	Y46	Z46	X47	Y47	Z47	X48	Y48	Z48	X49	Y49	Z49	X50	Y50	Z50	X51	Y51	Z51	X52	Y52	Z52	X53	Y53	Z53	X54	Y54	Z54	

244	2.43	-591.8699340820312	926.2438354492188	167.2650909423828	-613.97412109375	927.1936645507812	37.42588424682617	-602.711669921875	1009.701904296875	99.27947235107422	-370.5776977539062	1162.487426757812	81.32273101806641	-617.9856567382812	1109.245483398438	84.34535217285156	-580.2388305664062	1357.746215820312	74.59423065185547	-426.2792053222656	1280.178100585938	86.12352752685547	-625.44189453125	1208.220825195312	127.9790802001953	-593.40869140625	1326.383056640625	-29.83330726623535	-504.62646484375	1346.156494140625	-75.90374755859375	-527.2456665039062	1229.930297851562	-150.5531005859375	-492.7854614257812	1046.081176757812	-190.2976531982422	-541.012451171875	1003.065124511719	-133.2413482666016	-292.0335388183594	989.245849609375	-153.8070831298828	-309.6139526367188	946.5601196289062	-222.7963409423828	-425.9969177246094	992.6563720703125	-205.5228881835938	-228.9974212646484	914.212158203125	-221.0961761474609	-200.7857818603516	956.4417724609375	-181.6219024658203	-536.0999145507812	1327.50830078125	234.2817840576172	-565.0650634765625	1266.387451171875	282.3152770996094	-640.5812377929688	1016.143920898438	290.8212890625	-619.167724609375	1008.060791015625	198.8503112792969	-591.5790405273438	771.6495361328125	307.4539794921875	-658.1519775390625	783.3433227539062	339.2501525878906	-646.3316040039062	950.3338623046875	313.0493469238281	-660.1270751953125	613.4485473632812	293.3332214355469	-687.3060302734375	699.2635498046875	335.3698425292969	-534.0410766601562	1542.008666992188	173.3798217773438	-388.5736389160156	1545.893676757812	37.21945571899414	-402.5340270996094	1545.806274414062	159.8322448730469	-535.0706176757812	1541.3701171875	10.9266939163208	-547.49560546875	917.3226318359375	-89.41905975341797	-373.0202941894531	924.101318359375	182.3571014404297	-425.9722595214844	910.4026489257812	-75.70001983642578	-604.7786865234375	437.1603698730469	-53.41662979125977	-576.4056396484375	578.7071533203125	-76.17976379394531	-849.3250732421875	59.10552978515625	13.2662935256958	-731.4297485351562	235.2198486328125	-31.79544258117676	-636.0460205078125	40.50245666503906	80.05429077148438	-717.3889770507812	47.70786285400391	109.6930541992188	-724.7190551757812	42.43923568725586	3.809172868728638	-890.0404052734375	70.59809875488281	67.51864624023438	-264.22119140625	471.2865600585938	205.9820251464844	-349.7936401367188	717.9598388671875	237.719970703125	-139.4733734130859	54.98057174682617	162.5096282958984	-208.5299377441406	358.7408752441406	188.9478149414062	15.93520355224609	110.7689971923828	84.34949493408203	-53.44769668579102	87.77897644042969	60.2823486328125	-53.84890365600586	67.85186767578125	159.2644653320312	-208.2443389892578	26.85770416259766	115.4128189086914	-625.5994262695312	669.4707641601562	325.5286865234375	-488.4587097167969	908.4462890625	264.2397155761719	-140.2253570556641	895.4493408203125	-173.0055847167969	nan	nan	nan	
245	2.44	-578.3616333007812	925.0309448242188	167.6714324951172	-600.38330078125	925.1602172851562	37.79786682128906	-589.4466552734375	1007.600830078125	99.33055114746094	-357.8751525878906	1160.94140625	81.49152374267578	-605.2409057617188	1107.30810546875	84.67709350585938	-568.1605834960938	1355.8681640625	75.24488067626953	-413.9347229003906	1278.489868164062	86.49210357666016	-612.9326171875	1206.156860351562	128.5250854492188	-581.3824462890625	1324.466186523438	-29.20100593566895	-492.7125244140625	1344.308227539062	-75.43576812744141	-515.4517211914062	1227.77734375	-149.6501617431641	-481.15185546875	1043.69921875	-188.7140502929688	-529.0405883789062	1000.767211914062	-131.354248046875	-280.2442932128906	987.4789428710938	-152.7018127441406	-298.0668029785156	944.6482543945312	-221.6133728027344	-414.4730834960938	990.4496459960938	-204.0515594482422	-217.3585052490234	912.5116577148438	-220.2268981933594	-189.0688934326172	954.7918701171875	-180.8700256347656	-523.718505859375	1325.505249023438	234.8976440429688	-552.498291015625	1264.124267578125	282.9121398925781	-627.6502685546875	1013.837768554688	291.0180053710938	-606.1952514648438	1005.783813476562	199.0058441162109	-579.4501342773438	769.2177734375	307.5925598144531	-646.0325317382812	781.25634765625	339.1861877441406	-633.49560546875	948.110595703125	313.2339172363281	-649.0602416992188	611.5029907226562	292.8583068847656	-675.63720703125	697.372802734375	335.0592346191406	-522.8116455078125	1540.332153320312	173.6832885742188	-377.3528137207031	1544.618774414062	37.55622100830078	-391.3358459472656	1544.578491210938	160.2012023925781	-523.7960815429688	1539.492919921875	11.21666240692139	-534.14208984375	914.5902099609375	-89.13013458251953	-359.6204833984375	923.1503295898438	182.531494140625	-412.2428283691406	907.763427734375	-75.50091552734375	-594.1653442382812	435.5185852050781	-52.00127792358398	-564.7021484375	576.7263793945312	-74.7645263671875	-848.1184692382812	62.54455947875977	12.64974212646484	-725.7882690429688	236.500732421875	-31.50558853149414	-635.81591796875	40.28523635864258	80.07413482666016	-716.6744995117188	48.91005325317383	109.3110809326172	-724.0352172851562	42.56789779663086	3.573321342468262	-888.6275634765625	75.77796936035156	66.84153747558594	-249.716064453125	471.1241455078125	203.7517395019531	-335.1595153808594	717.2722778320312	237.3704986572266	-133.3364562988281	53.7435417175293	160.7958831787109	-195.6475982666016	357.6580810546875	186.1454925537109	23.40254783630371	102.7407150268555	81.18527984619141	-46.92705917358398	81.89155578613281	57.52470397949219	-47.69358825683594	63.76502990722656	156.7036285400391	-203.4879150390625	27.86009788513184	114.3165740966797	-614.1278076171875	667.2152099609375	325.2745666503906	-474.8646240234375	908.1416015625	264.7725830078125	-128.3343200683594	893.9502563476562	-172.5590972900391	nan	nan	nan	
246	2.45	-564.6183471679688	924.3726196289062	167.9293212890625	-586.3875122070312	923.5189208984375	37.99965667724609	-575.9552001953125	1005.774047851562	99.15194702148438	-344.9981994628906	1159.854125976562	81.76139831542969	-592.4537353515625	1105.76025390625	84.96012878417969	-556.0086669921875	1354.3603515625	75.89054107666016	-401.4692993164062	1277.236328125	86.91426086425781	-600.2850341796875	1204.456665039062	129.0518951416016	-569.2236328125	1322.924560546875	-28.57209205627441	-480.6730651855469	1342.843017578125	-74.94786071777344	-503.5559692382812	1226.040893554688	-148.7424011230469	-469.5826110839844	1041.644775390625	-187.1493988037109	-517.23583984375	998.9581298828125	-129.4267120361328	-268.6546325683594	985.2596435546875	-151.5994873046875	-286.8318481445312	942.3229370117188	-220.3790283203125	-403.0946655273438	988.3101806640625	-202.5852203369141	-206.2021179199219	910.0955200195312	-219.2981414794922	-177.6448211669922	952.3532104492188	-180.1019439697266	-511.2699584960938	1323.902221679688	235.5372619628906	-539.8199462890625	1262.2373046875	283.5445251464844	-614.3104858398438	1011.814453125	291.4009399414062	-592.9930419921875	1003.845703125	199.2954559326172	-566.5488891601562	767.1082763671875	307.7066040039062	-633.0289306640625	779.403076171875	339.3032531738281	-620.1309204101562	946.1543579101562	313.590087890625	-637.0441284179688	609.8182373046875	292.4639892578125	-663.0300903320312	695.6858520507812	334.9513854980469	-511.5196228027344	1539.050537109375	174.0025634765625	-366.0647888183594	1543.739624023438	37.90845489501953	-380.0426635742188	1543.75146484375	160.5731048583984	-512.4498901367188	1538.009155273438	11.53275775909424	-520.2175903320312	912.095458984375	-88.96076965332031	-346.0349426269531	922.7548217773438	182.9189910888672	-398.1005249023438	905.3794555664062	-75.16168975830078	-582.8797607421875	434.0962219238281	-50.59972763061523	-552.3916625976562	574.927490234375	-73.27465057373047	-846.5303344726562	66.60038757324219	11.8478479385376	-719.6552734375	238.3475494384766	-31.34906578063965	-635.6805419921875	40.11461639404297	80.12164306640625	-715.8162841796875	50.34669494628906	108.8293075561523	-723.2359008789062	42.70939254760742	3.259214401245117	-886.642333984375	81.82498931884766	65.94680023193359	-235.2167358398438	471.4094543457031	201.4154357910156	-320.4909362792969	716.9567260742188	237.2623748779297	-128.7263488769531	52.70040130615234	159.3072509765625	-183.0363311767578	356.8705749511719	183.2396392822266	29.63390350341797	93.54830169677734	78.28444671630859	-41.82051849365234	75.435302734375	55.01058959960938	-43.19281768798828	59.40682983398438	154.4228973388672	-200.3580780029297	29.3127384185791	113.4006118774414	-601.701171875	665.2491455078125	325.0174560546875	-461.1867065429688	908.4634399414062	265.3760681152344	-117.0005645751953	891.3872680664062	-172.0596313476562	nan	nan	nan	
247	2.46	-550.67431640625	924.2821655273438	168.0438385009766	-572.041259765625	922.2914428710938	38.03400421142578	-562.2308959960938	1004.258178710938	98.75406646728516	-331.9856262207031	1159.25341796875	82.12760925292969	-579.6257934570312	1104.633666992188	85.21218872070312	-543.80419921875	1353.248046875	76.51411437988281	-388.8908996582031	1276.44873046875	87.38583374023438	-587.5240478515625	1203.15234375	129.5520172119141	-556.9541015625	1321.786865234375	-27.96309471130371	-468.5195007324219	1341.788208007812	-74.45252227783203	-491.57177734375	1224.746459960938	-147.8418273925781	-458.0733947753906	1039.951538085938	-185.6396942138672	-505.5924682617188	997.6731567382812	-127.5010604858398	-257.2815856933594	982.602294921875	-150.5126190185547	-275.9206237792969	939.6111450195312	-219.1110992431641	-391.8485107421875	986.2701416015625	-201.148681640625	-195.5273742675781	906.9803466796875	-218.3016662597656	-166.525390625	949.1428833007812	-179.2907104492188	-498.7887268066406	1322.730834960938	236.1834259033203	-527.0682983398438	1260.758911132812	284.1919250488281	-600.5867919921875	1010.104248046875	291.9607849121094	-579.5756225585938	1002.269287109375	199.7176208496094	-552.8543701171875	765.3652954101562	307.7990417480469	-619.1297607421875	777.8099365234375	339.6075439453125	-606.2620239257812	944.494140625	314.1098937988281	-624.02880859375	608.413330078125	292.1722412109375	-649.4575805664062	694.2189331054688	335.0588684082031	-500.1671142578125	1538.190063476562	174.3325042724609	-354.7116088867188	1543.27685546875	38.27778244018555	-368.6562194824219	1543.3466796875	160.9428863525391	-501.0299377441406	1536.949951171875	11.86999797821045	-505.7841491699219	909.8997802734375	-88.87037658691406	-332.2659912109375	922.9387817382812	183.5052642822266	-383.6449584960938	903.3248291015625	-74.68573760986328	-570.8389892578125	432.9192810058594	-49.30656814575195	-539.4418334960938	573.3428344726562	-71.76753997802734	-844.4452514648438	71.32184600830078	10.83572578430176	-712.9198608398438	240.7866363525391	-31.37860870361328	-635.62890625	40.00620651245117	80.15985870361328	-714.7567138671875	52.01324844360352	108.2268600463867	-722.3040161132812	42.85719680786133	2.862203598022461	-883.9403076171875	88.81228637695312	64.78917694091797	-220.7843627929688	472.1241149902344	199.0576477050781	-305.8598327636719	717.0437622070312	237.4267730712891	-125.2112121582031	51.90707015991211	158.034912109375	-170.6629791259766	356.4349365234375	180.3221588134766	34.84923934936523	83.94037628173828	75.61032104492188	-37.8358268737793	68.94666290283203	52.769287109375	-39.90645980834961	55.21089935302734	152.4255218505859	-198.2827758789062	31.05904579162598	112.7054977416992	-588.3009643554688	663.598876953125	324.7738037109375	-447.439208984375	909.4076538085938	266.0222778320312	-106.2336273193359	887.7855834960938	-171.4639434814453	nan	nan	nan	
